{"accessors":[{"name":"Node-Mesh_positions","componentType":5126,"count":56584,"min":[-25.25511932373047,-73.02378845214844,-24.105209350585938],"max":[25.25511932373047,47.29146957397461,24.105209350585938],"type":"VEC3","bufferView":0,"byteOffset":0},{"name":"Node-Mesh_texcoords","componentType":5126,"count":56584,"min":[0.001230000052601099,0.0012199999764561653],"max":[0.7621200084686279,0.9980900287628174],"type":"VEC2","bufferView":1,"byteOffset":0},{"name":"Node-Mesh_0_indices","componentType":5123,"count":278880,"min":[0],"max":[56583],"type":"SCALAR","bufferView":2,"byteOffset":0}],"asset":{"generator":"obj2gltf","version":"2.0"},"buffers":[{"name":"model_C3PO_20171214_152833812","byteLength":1870412,"uri":"data:application/octet-stream;base64,"}],"bufferViews":[{"name":"bufferView_0","buffer":0,"byteLength":679008,"byteOffset":0,"byteStride":12,"target":34962},{"name":"bufferView_1","buffer":0,"byteLength":452672,"byteOffset":679008,"byteStride":8,"target":34962},{"name":"bufferView_2","buffer":0,"byteLength":557760,"byteOffset":1131680,"target":34963},{"buffer":0,"byteOffset":1689440,"byteLength":180972}],"images":[{"name":"texture","mimeType":"image/jpeg","bufferView":3}],"materials":[{"name":"material0","pbrMetallicRoughness":{"baseColorTexture":{"index":0},"baseColorFactor":[1,1,1,1],"metallicFactor":0,"roughnessFactor":1},"emissiveFactor":[0,0,0],"alphaMode":"OPAQUE","doubleSided":false}],"meshes":[{"name":"Node-Mesh","primitives":[{"attributes":{"POSITION":0,"TEXCOORD_0":1},"indices":2,"material":0,"mode":4}]}],"nodes":[{"name":"Node","mesh":0}],"samplers":[{"magFilter":9729,"minFilter":9986,"wrapS":10497,"wrapT":10497}],"scene":0,"scenes":[{"nodes":[0]}],"textures":[{"name":"texture","sampler":0,"source":0}]}
