{"accessors":[{"name":"mesh2137122047_positions","componentType":5126,"count":222,"min":[-0.3606534004211426,-0.2616994082927704,-0.273237407207489],"max":[0.23148800432682037,0.3302192986011505,0.25534969568252563],"type":"VEC3","bufferView":0,"byteOffset":0},{"name":"mesh2137122047_normals","componentType":5126,"count":222,"min":[-0.9502155184745789,-0.9767919778823853,-0.96629798412323],"max":[0.9502155184745789,0.9767919778823853,0.9662981033325195],"type":"VEC3","bufferView":0,"byteOffset":25320},{"name":"mesh2137122047_texcoords","componentType":5126,"count":222,"min":[-0.08377169817686081,1.0195802450180054],"max":[0.083771713078022,1.0989549160003662],"type":"VEC2","bufferView":1,"byteOffset":0},{"name":"mesh2137122047_0_indices","componentType":5123,"count":84,"min":[0],"max":[45],"type":"SCALAR","bufferView":2,"byteOffset":0},{"name":"mesh2137122047_1_indices","componentType":5123,"count":327,"min":[46],"max":[210],"type":"SCALAR","bufferView":2,"byteOffset":168},{"name":"mesh2137122047_2_indices","componentType":5123,"count":21,"min":[211],"max":[221],"type":"SCALAR","bufferView":2,"byteOffset":824},{"name":"mesh1507857912_positions","componentType":5126,"count":486,"min":[-0.36991649866104126,0.04720276966691017,-0.27007460594177246],"max":[0.13070429861545563,0.542953372001648,0.22715610265731812],"type":"VEC3","bufferView":0,"byteOffset":2664},{"name":"mesh1507857912_normals","componentType":5126,"count":486,"min":[-0.9647538065910339,-0.999204695224762,-0.9715359807014465],"max":[0.9647539258003235,0.9992048144340515,0.9715359807014465],"type":"VEC3","bufferView":0,"byteOffset":27984},{"name":"mesh1507857912_texcoords","componentType":5126,"count":486,"min":[-0.04299870878458023,0.9739434123039246],"max":[0.04314699023962021,1.0744210481643677],"type":"VEC2","bufferView":1,"byteOffset":1776},{"name":"mesh1507857912_0_indices","componentType":5123,"count":573,"min":[0],"max":[384],"type":"SCALAR","bufferView":2,"byteOffset":868},{"name":"mesh1507857912_1_indices","componentType":5123,"count":159,"min":[385],"max":[485],"type":"SCALAR","bufferView":2,"byteOffset":2016},{"name":"mesh1328640280_positions","componentType":5126,"count":408,"min":[0.0035572650376707315,0.4290566146373749,0.0047168731689453125],"max":[0.0732751190662384,0.4977846145629883,0.07410728931427002],"type":"VEC3","bufferView":0,"byteOffset":8496},{"name":"mesh1328640280_normals","componentType":5126,"count":408,"min":[-0.9907435178756714,-0.9956328272819519,-0.982875406742096],"max":[0.9907435178756714,0.9956328272819519,0.9828752875328064],"type":"VEC3","bufferView":0,"byteOffset":33816},{"name":"mesh1328640280_texcoords","componentType":5126,"count":408,"min":[-0.04084393009543419,0.9641174077987671],"max":[0.04089580103754997,1.0560346841812134],"type":"VEC2","bufferView":1,"byteOffset":5664},{"name":"mesh1328640280_0_indices","componentType":5123,"count":576,"min":[0],"max":[407],"type":"SCALAR","bufferView":2,"byteOffset":2336},{"name":"mesh1528145240_positions","componentType":5126,"count":24,"min":[-0.040462881326675415,0.3964107036590576,-0.09964624047279358],"max":[0.0970083475112915,0.5068840980529785,0.0955938994884491],"type":"VEC3","bufferView":0,"byteOffset":13392},{"name":"mesh1528145240_normals","componentType":5126,"count":24,"min":[-0.8404421210289001,-0.8516178131103516,-0.9870972037315369],"max":[0.8404421210289001,0.8516178131103516,0.9870972037315369],"type":"VEC3","bufferView":0,"byteOffset":38712},{"name":"mesh1528145240_texcoords","componentType":5126,"count":24,"min":[-0.03646736964583397,1.0187957286834717],"max":[0.03646736964583397,1.0478472709655762],"type":"VEC2","bufferView":1,"byteOffset":8928},{"name":"mesh1528145240_0_indices","componentType":5123,"count":30,"min":[0],"max":[19],"type":"SCALAR","bufferView":2,"byteOffset":3488},{"name":"mesh1528145240_1_indices","componentType":5123,"count":6,"min":[20],"max":[23],"type":"SCALAR","bufferView":2,"byteOffset":3548},{"name":"mesh510156761_positions","componentType":5126,"count":32,"min":[-0.13340190052986145,-0.45033541321754456,-0.33452099561691284],"max":[0.11702410131692886,0.15488789975643158,-0.19692540168762207],"type":"VEC3","bufferView":0,"byteOffset":13680},{"name":"mesh510156761_normals","componentType":5126,"count":32,"min":[-0.9736034274101257,-0.967843770980835,-0.997596800327301],"max":[0.9735621213912964,0.9712347984313965,0.9974569082260132],"type":"VEC3","bufferView":0,"byteOffset":39000},{"name":"mesh510156761_texcoords","componentType":5126,"count":32,"min":[-0.1038879007101059,1.0343565940856934],"max":[0.10443820059299469,1.0983504056930542],"type":"VEC2","bufferView":1,"byteOffset":9120},{"name":"mesh510156761_0_indices","componentType":5123,"count":36,"min":[0],"max":[31],"type":"SCALAR","bufferView":2,"byteOffset":3560},{"name":"mesh1411143984_positions","componentType":5126,"count":32,"min":[-0.16156570613384247,-0.42581048607826233,0.23850539326667786],"max":[0.10781250149011612,0.19932609796524048,0.3776026964187622],"type":"VEC3","bufferView":0,"byteOffset":14064},{"name":"mesh1411143984_normals","componentType":5126,"count":32,"min":[-0.9726448059082031,-0.9720939993858337,-0.9998055100440979],"max":[0.9727659821510315,0.9726740121841431,0.9994959235191345],"type":"VEC3","bufferView":0,"byteOffset":39384},{"name":"mesh1411143984_texcoords","componentType":5126,"count":32,"min":[-0.10300649702548981,1.0419048070907593],"max":[0.1041875034570694,1.1277347803115845],"type":"VEC2","bufferView":1,"byteOffset":9376},{"name":"mesh1411143984_0_indices","componentType":5123,"count":36,"min":[0],"max":[31],"type":"SCALAR","bufferView":2,"byteOffset":3632},{"name":"mesh533606578_positions","componentType":5126,"count":408,"min":[0.05581767112016678,0.3326750099658966,0.04100152850151062],"max":[0.10542239993810654,0.38106968998908997,0.0896424874663353],"type":"VEC3","bufferView":0,"byteOffset":14448},{"name":"mesh533606578_normals","componentType":5126,"count":408,"min":[-0.9979522824287415,-0.9919465780258179,-0.992157518863678],"max":[0.997952401638031,0.9919465780258179,0.9921573996543884],"type":"VEC3","bufferView":0,"byteOffset":39768},{"name":"mesh533606578_texcoords","componentType":5126,"count":408,"min":[-0.049405209720134735,0.9592456817626953],"max":[0.04941856116056442,1.063735008239746],"type":"VEC2","bufferView":1,"byteOffset":9632},{"name":"mesh533606578_0_indices","componentType":5123,"count":576,"min":[0],"max":[407],"type":"SCALAR","bufferView":2,"byteOffset":3704},{"name":"mesh1726417990_positions","componentType":5126,"count":72,"min":[-0.14306509494781494,0.09839403629302979,-0.3182581067085266],"max":[-0.03147071972489357,0.20595869421958923,-0.20417889952659607],"type":"VEC3","bufferView":0,"byteOffset":19344},{"name":"mesh1726417990_normals","componentType":5126,"count":72,"min":[-0.9983189105987549,-0.9990851879119873,-0.9992328882217407],"max":[0.9983189105987549,0.9990851879119873,0.9992328882217407],"type":"VEC3","bufferView":0,"byteOffset":44664},{"name":"mesh1726417990_texcoords","componentType":5126,"count":72,"min":[-0.04935608059167862,0.9945844411849976],"max":[0.04935608059167862,1.0708231925964355],"type":"VEC2","bufferView":1,"byteOffset":12896},{"name":"mesh1726417990_0_indices","componentType":5123,"count":132,"min":[0],"max":[71],"type":"SCALAR","bufferView":2,"byteOffset":4856},{"name":"mesh534952463_positions","componentType":5126,"count":72,"min":[-0.14923270046710968,0.1274328976869583,0.18421350419521332],"max":[-0.03872999921441078,0.2437186986207962,0.30255261063575745],"type":"VEC3","bufferView":0,"byteOffset":20208},{"name":"mesh534952463_normals","componentType":5126,"count":72,"min":[-0.9964267015457153,-0.9938582181930542,-0.9968547224998474],"max":[0.9964265823364258,0.9938582181930542,0.9968547224998474],"type":"VEC3","bufferView":0,"byteOffset":45528},{"name":"mesh534952463_texcoords","componentType":5126,"count":72,"min":[-0.06371702253818512,1.0161126852035522],"max":[0.06371702253818512,1.0907626152038574],"type":"VEC2","bufferView":1,"byteOffset":13472},{"name":"mesh534952463_0_indices","componentType":5123,"count":132,"min":[0],"max":[71],"type":"SCALAR","bufferView":2,"byteOffset":5120},{"name":"mesh1518184355_positions","componentType":5126,"count":24,"min":[-0.09482243657112122,-0.29618000984191895,-0.3510211110115051],"max":[0.0878785103559494,0.14389529824256897,-0.24629579484462738],"type":"VEC3","bufferView":0,"byteOffset":21072},{"name":"mesh1518184355_normals","componentType":5126,"count":24,"min":[-0.9705736041069031,-0.9693828821182251,-0.9983763098716736],"max":[0.9705736041069031,0.9693828821182251,0.9983763098716736],"type":"VEC3","bufferView":0,"byteOffset":46392},{"name":"mesh1518184355_texcoords","componentType":5126,"count":24,"min":[-0.08954588323831558,1.0331357717514038],"max":[0.08954588323831558,1.0678775310516357],"type":"VEC2","bufferView":1,"byteOffset":14048},{"name":"mesh1518184355_0_indices","componentType":5123,"count":36,"min":[0],"max":[23],"type":"SCALAR","bufferView":2,"byteOffset":5384},{"name":"mesh545886949_positions","componentType":5126,"count":24,"min":[-0.10647570341825485,-0.2693209946155548,0.26101240515708923],"max":[0.0738755315542221,0.16891750693321228,0.3501029908657074],"type":"VEC3","bufferView":0,"byteOffset":21360},{"name":"mesh545886949_normals","componentType":5126,"count":24,"min":[-0.9710983037948608,-0.9708855748176575,-0.999782919883728],"max":[0.9710983037948608,0.9708855748176575,0.999782919883728],"type":"VEC3","bufferView":0,"byteOffset":46680},{"name":"mesh545886949_texcoords","componentType":5126,"count":24,"min":[-0.08819563686847687,1.0468692779541016],"max":[0.08819563686847687,1.1168798208236694],"type":"VEC2","bufferView":1,"byteOffset":14240},{"name":"mesh545886949_0_indices","componentType":5123,"count":36,"min":[0],"max":[23],"type":"SCALAR","bufferView":2,"byteOffset":5456},{"name":"mesh195212472_positions","componentType":5126,"count":24,"min":[-0.06560813635587692,-0.13368499279022217,0.2599884867668152],"max":[0.04450536146759987,-0.02586543932557106,0.3541100025177002],"type":"VEC3","bufferView":0,"byteOffset":21648},{"name":"mesh195212472_normals","componentType":5126,"count":24,"min":[-0.9764646887779236,-0.9769461750984192,-0.9993906021118164],"max":[0.9764646887779236,0.9769461750984192,0.9993906021118164],"type":"VEC3","bufferView":0,"byteOffset":46968},{"name":"mesh195212472_texcoords","componentType":5126,"count":24,"min":[-0.07492370158433914,1.0485498905181885],"max":[0.07492370158433914,1.1107536554336548],"type":"VEC2","bufferView":1,"byteOffset":14432},{"name":"mesh195212472_0_indices","componentType":5123,"count":36,"min":[0],"max":[23],"type":"SCALAR","bufferView":2,"byteOffset":5528},{"name":"mesh415535358_positions","componentType":5126,"count":24,"min":[-0.0558466911315918,-0.16590389609336853,-0.34678828716278076],"max":[0.06182771921157837,-0.05376433953642845,-0.24440960586071014],"type":"VEC3","bufferView":0,"byteOffset":21936},{"name":"mesh415535358_normals","componentType":5126,"count":24,"min":[-0.9648947715759277,-0.9685178995132446,-0.9945665001869202],"max":[0.9648947715759277,0.9685178995132446,0.9945665001869202],"type":"VEC3","bufferView":0,"byteOffset":47256},{"name":"mesh415535358_texcoords","componentType":5126,"count":24,"min":[-0.07624155282974243,1.0328447818756104],"max":[0.07624155282974243,1.062157392501831],"type":"VEC2","bufferView":1,"byteOffset":14624},{"name":"mesh415535358_0_indices","componentType":5123,"count":36,"min":[0],"max":[23],"type":"SCALAR","bufferView":2,"byteOffset":5600},{"name":"mesh1999685301_positions","componentType":5126,"count":24,"min":[0.09121421724557877,-0.14932839572429657,-0.006934105884283781],"max":[0.23075659573078156,-0.03127973899245262,0.11968290060758591],"type":"VEC3","bufferView":0,"byteOffset":22224},{"name":"mesh1999685301_normals","componentType":5126,"count":24,"min":[-0.9464818835258484,-0.9822853803634644,-0.9639949798583984],"max":[0.9464818835258484,0.9822853803634644,0.9639949798583984],"type":"VEC3","bufferView":0,"byteOffset":47544},{"name":"mesh1999685301_texcoords","componentType":5126,"count":24,"min":[-0.08654853701591492,1.022868275642395],"max":[0.08654853701591492,1.0870500802993774],"type":"VEC2","bufferView":1,"byteOffset":14816},{"name":"mesh1999685301_0_indices","componentType":5123,"count":36,"min":[0],"max":[23],"type":"SCALAR","bufferView":2,"byteOffset":5672},{"name":"mesh216474176_positions","componentType":5126,"count":24,"min":[0.009514808654785156,0.4363839030265808,-0.08795812726020813],"max":[0.08636319637298584,0.506010890007019,-0.026511160656809807],"type":"VEC3","bufferView":0,"byteOffset":22512},{"name":"mesh216474176_normals","componentType":5126,"count":24,"min":[-0.8339644074440002,-0.8495798707008362,-0.9831548929214478],"max":[0.8339644074440002,0.8495798707008362,0.9831548929214478],"type":"VEC3","bufferView":0,"byteOffset":47832},{"name":"mesh216474176_texcoords","componentType":5126,"count":24,"min":[-0.02913244068622589,1.0175670385360718],"max":[0.02913244068622589,1.0393824577331543],"type":"VEC2","bufferView":1,"byteOffset":15008},{"name":"mesh216474176_0_indices","componentType":5123,"count":36,"min":[0],"max":[23],"type":"SCALAR","bufferView":2,"byteOffset":5744},{"name":"mesh1671240818_positions","componentType":5126,"count":72,"min":[-0.21749620139598846,-0.3336716890335083,-0.2181020975112915],"max":[0.2002882957458496,-0.14975379407405853,0.2155247926712036],"type":"VEC3","bufferView":0,"byteOffset":22800},{"name":"mesh1671240818_normals","componentType":5126,"count":72,"min":[-0.5644059777259827,-0.978766918182373,-0.7923784255981445],"max":[0.9017214179039001,0.9680578708648682,0.7186629772186279],"type":"VEC3","bufferView":0,"byteOffset":48120},{"name":"mesh1671240818_texcoords","componentType":5126,"count":72,"min":[-0.047600891441106796,0.9663159847259521],"max":[0.07904908806085587,1.106592059135437],"type":"VEC2","bufferView":1,"byteOffset":15200},{"name":"mesh1671240818_0_indices","componentType":5123,"count":96,"min":[0],"max":[71],"type":"SCALAR","bufferView":2,"byteOffset":5816},{"name":"mesh203836421_positions","componentType":5126,"count":54,"min":[-0.18352310359477997,0.037231091409921646,-0.31131088733673096],"max":[0.013455839827656746,0.27006301283836365,0.2975519001483917],"type":"VEC3","bufferView":0,"byteOffset":23664},{"name":"mesh203836421_normals","componentType":5126,"count":54,"min":[-0.9739257097244263,-0.9548938870429993,-0.9982736110687256],"max":[0.9928163290023804,0.9965531826019287,0.997038722038269],"type":"VEC3","bufferView":0,"byteOffset":48984},{"name":"mesh203836421_texcoords","componentType":5126,"count":54,"min":[-0.06713330000638962,0.982107937335968],"max":[0.06081891059875488,1.0926343202590942],"type":"VEC2","bufferView":1,"byteOffset":15776},{"name":"mesh203836421_0_indices","componentType":5123,"count":96,"min":[0],"max":[53],"type":"SCALAR","bufferView":2,"byteOffset":6008},{"name":"mesh920457452_positions","componentType":5126,"count":18,"min":[-0.07276865839958191,-0.462554007768631,0.19438309967517853],"max":[0.15415890514850616,-0.25543808937072754,0.4724073112010956],"type":"VEC3","bufferView":0,"byteOffset":24312},{"name":"mesh920457452_normals","componentType":5126,"count":18,"min":[-0.9088507890701294,-0.9930539131164551,-0.9994496703147888],"max":[0.8135542869567871,0.5784903764724731,0.9597635269165039],"type":"VEC3","bufferView":0,"byteOffset":49632},{"name":"mesh920457452_texcoords","componentType":5126,"count":18,"min":[-0.12531189620494843,0.9976696372032166],"max":[0.10663840174674988,1.144138216972351],"type":"VEC2","bufferView":1,"byteOffset":16208},{"name":"mesh920457452_0_indices","componentType":5123,"count":24,"min":[0],"max":[17],"type":"SCALAR","bufferView":2,"byteOffset":6200},{"name":"mesh484864726_positions","componentType":5126,"count":18,"min":[-0.07359197735786438,-0.4561288058757782,-0.460140585899353],"max":[0.15270020067691803,-0.24884739518165588,-0.17128939926624298],"type":"VEC3","bufferView":0,"byteOffset":24528},{"name":"mesh484864726_normals","componentType":5126,"count":18,"min":[-0.8726199865341187,-0.9977840781211853,-0.9605265855789185],"max":[0.8594691753387451,0.5074812173843384,0.9928230047225952],"type":"VEC3","bufferView":0,"byteOffset":49848},{"name":"mesh484864726_texcoords","componentType":5126,"count":18,"min":[-0.10738349705934525,0.9629184603691101],"max":[0.11084429919719696,1.1181882619857788],"type":"VEC2","bufferView":1,"byteOffset":16352},{"name":"mesh484864726_0_indices","componentType":5123,"count":24,"min":[0],"max":[17],"type":"SCALAR","bufferView":2,"byteOffset":6248},{"name":"mesh2105098883_positions","componentType":5126,"count":24,"min":[-0.017054950818419456,-0.47050419449806213,-0.3639427125453949],"max":[0.07827109843492508,-0.37187421321868896,-0.2221754938364029],"type":"VEC3","bufferView":0,"byteOffset":24744},{"name":"mesh2105098883_normals","componentType":5126,"count":24,"min":[-0.9967923164367676,-0.9956164956092834,-0.9972460865974426],"max":[0.9967926740646362,0.9956682920455933,0.9992706775665283],"type":"VEC3","bufferView":0,"byteOffset":50064},{"name":"mesh2105098883_texcoords","componentType":5126,"count":24,"min":[-0.10590880364179611,1.0171955823898315],"max":[0.10562670230865479,1.1090302467346191],"type":"VEC2","bufferView":1,"byteOffset":16496},{"name":"mesh2105098883_0_indices","componentType":5123,"count":36,"min":[0],"max":[23],"type":"SCALAR","bufferView":2,"byteOffset":6296},{"name":"mesh1443108139_positions","componentType":5126,"count":24,"min":[-0.016160620376467705,-0.46806541085243225,0.2513236999511719],"max":[0.08229623734951019,-0.3681792914867401,0.3895331919193268],"type":"VEC3","bufferView":0,"byteOffset":25032},{"name":"mesh1443108139_normals","componentType":5126,"count":24,"min":[-0.9853014945983887,-0.9852213859558105,-0.9998527765274048],"max":[0.9853016138076782,0.9852343797683716,0.9994040727615356],"type":"VEC3","bufferView":0,"byteOffset":50352},{"name":"mesh1443108139_texcoords","componentType":5126,"count":24,"min":[-0.10363789647817612,1.0488649606704712],"max":[0.10646060109138489,1.1385830640792847],"type":"VEC2","bufferView":1,"byteOffset":16688},{"name":"mesh1443108139_0_indices","componentType":5123,"count":36,"min":[0],"max":[23],"type":"SCALAR","bufferView":2,"byteOffset":6368}],"asset":{"generator":"obj2gltf","version":"2.0"},"buffers":[{"name":"model","byteLength":73960,"uri":"data:application/octet-stream;base64,"}],"bufferViews":[{"name":"bufferView_0","buffer":0,"byteLength":50640,"byteOffset":0,"byteStride":12,"target":34962},{"name":"bufferView_1","buffer":0,"byteLength":16880,"byteOffset":50640,"byteStride":8,"target":34962},{"name":"bufferView_2","buffer":0,"byteLength":6440,"byteOffset":67520,"target":34963}],"materials":[{"name":"mat17","pbrMetallicRoughness":{"baseColorFactor":[0.27,0.35,0.39,1],"metallicFactor":0,"roughnessFactor":1},"emissiveFactor":[0,0,0],"alphaMode":"OPAQUE","doubleSided":false},{"name":"mat21","pbrMetallicRoughness":{"baseColorFactor":[1,1,1,1],"metallicFactor":0,"roughnessFactor":1},"emissiveFactor":[0,0,0],"alphaMode":"OPAQUE","doubleSided":false},{"name":"mat15","pbrMetallicRoughness":{"baseColorFactor":[0.81,0.85,0.86,1],"metallicFactor":0,"roughnessFactor":1},"emissiveFactor":[0,0,0],"alphaMode":"OPAQUE","doubleSided":false},{"name":"mat23","pbrMetallicRoughness":{"baseColorFactor":[0.1,0.1,0.1,1],"metallicFactor":0,"roughnessFactor":1},"emissiveFactor":[0,0,0],"alphaMode":"OPAQUE","doubleSided":false},{"name":"mat5","pbrMetallicRoughness":{"baseColorFactor":[0.01,0.61,0.9,1],"metallicFactor":0,"roughnessFactor":1},"emissiveFactor":[0,0,0],"alphaMode":"OPAQUE","doubleSided":false}],"meshes":[{"name":"mesh2137122047","primitives":[{"attributes":{"POSITION":0,"NORMAL":1,"TEXCOORD_0":2},"indices":3,"material":0,"mode":4},{"attributes":{"POSITION":0,"NORMAL":1,"TEXCOORD_0":2},"indices":4,"material":1,"mode":4},{"attributes":{"POSITION":0,"NORMAL":1,"TEXCOORD_0":2},"indices":5,"material":2,"mode":4}]},{"name":"mesh1507857912","primitives":[{"attributes":{"POSITION":6,"NORMAL":7,"TEXCOORD_0":8},"indices":9,"material":1,"mode":4},{"attributes":{"POSITION":6,"NORMAL":7,"TEXCOORD_0":8},"indices":10,"material":0,"mode":4}]},{"name":"mesh1328640280","primitives":[{"attributes":{"POSITION":11,"NORMAL":12,"TEXCOORD_0":13},"indices":14,"material":3,"mode":4}]},{"name":"mesh1528145240","primitives":[{"attributes":{"POSITION":15,"NORMAL":16,"TEXCOORD_0":17},"indices":18,"material":1,"mode":4},{"attributes":{"POSITION":15,"NORMAL":16,"TEXCOORD_0":17},"indices":19,"material":0,"mode":4}]},{"name":"mesh510156761","primitives":[{"attributes":{"POSITION":20,"NORMAL":21,"TEXCOORD_0":22},"indices":23,"material":1,"mode":4}]},{"name":"mesh1411143984","primitives":[{"attributes":{"POSITION":24,"NORMAL":25,"TEXCOORD_0":26},"indices":27,"material":1,"mode":4}]},{"name":"mesh533606578","primitives":[{"attributes":{"POSITION":28,"NORMAL":29,"TEXCOORD_0":30},"indices":31,"material":4,"mode":4}]},{"name":"mesh1726417990","primitives":[{"attributes":{"POSITION":32,"NORMAL":33,"TEXCOORD_0":34},"indices":35,"material":0,"mode":4}]},{"name":"mesh534952463","primitives":[{"attributes":{"POSITION":36,"NORMAL":37,"TEXCOORD_0":38},"indices":39,"material":0,"mode":4}]},{"name":"mesh1518184355","primitives":[{"attributes":{"POSITION":40,"NORMAL":41,"TEXCOORD_0":42},"indices":43,"material":0,"mode":4}]},{"name":"mesh545886949","primitives":[{"attributes":{"POSITION":44,"NORMAL":45,"TEXCOORD_0":46},"indices":47,"material":0,"mode":4}]},{"name":"mesh195212472","primitives":[{"attributes":{"POSITION":48,"NORMAL":49,"TEXCOORD_0":50},"indices":51,"material":1,"mode":4}]},{"name":"mesh415535358","primitives":[{"attributes":{"POSITION":52,"NORMAL":53,"TEXCOORD_0":54},"indices":55,"material":1,"mode":4}]},{"name":"mesh1999685301","primitives":[{"attributes":{"POSITION":56,"NORMAL":57,"TEXCOORD_0":58},"indices":59,"material":0,"mode":4}]},{"name":"mesh216474176","primitives":[{"attributes":{"POSITION":60,"NORMAL":61,"TEXCOORD_0":62},"indices":63,"material":0,"mode":4}]},{"name":"mesh1671240818","primitives":[{"attributes":{"POSITION":64,"NORMAL":65,"TEXCOORD_0":66},"indices":67,"material":1,"mode":4}]},{"name":"mesh203836421","primitives":[{"attributes":{"POSITION":68,"NORMAL":69,"TEXCOORD_0":70},"indices":71,"material":1,"mode":4}]},{"name":"mesh920457452","primitives":[{"attributes":{"POSITION":72,"NORMAL":73,"TEXCOORD_0":74},"indices":75,"material":1,"mode":4}]},{"name":"mesh484864726","primitives":[{"attributes":{"POSITION":76,"NORMAL":77,"TEXCOORD_0":78},"indices":79,"material":1,"mode":4}]},{"name":"mesh2105098883","primitives":[{"attributes":{"POSITION":80,"NORMAL":81,"TEXCOORD_0":82},"indices":83,"material":0,"mode":4}]},{"name":"mesh1443108139","primitives":[{"attributes":{"POSITION":84,"NORMAL":85,"TEXCOORD_0":86},"indices":87,"material":0,"mode":4}]}],"nodes":[{"name":"group2137122047","mesh":0},{"name":"group1507857912","mesh":1},{"name":"group1328640280","mesh":2},{"name":"group1528145240","mesh":3},{"name":"group510156761","mesh":4},{"name":"group1411143984","mesh":5},{"name":"group533606578","mesh":6},{"name":"group1726417990","mesh":7},{"name":"group534952463","mesh":8},{"name":"group1518184355","mesh":9},{"name":"group545886949","mesh":10},{"name":"group195212472","mesh":11},{"name":"group415535358","mesh":12},{"name":"group1999685301","mesh":13},{"name":"group216474176","mesh":14},{"name":"group1671240818","mesh":15},{"name":"group203836421","mesh":16},{"name":"group920457452","mesh":17},{"name":"group484864726","mesh":18},{"name":"group2105098883","mesh":19},{"name":"group1443108139","mesh":20}],"scene":0,"scenes":[{"nodes":[0,1,2,3,4,5,6,7,8,9,10,11,12,13,14,15,16,17,18,19,20]}]}
