{"accessors":[{"name":"Node-Mesh_positions","componentType":5126,"count":10850,"min":[-1.2353789806365967,-0.2491631954908371,-0.8308442831039429],"max":[0.5680798888206482,0.17074300348758698,0.8306897878646851],"type":"VEC3","bufferView":0,"byteOffset":0},{"name":"Node-Mesh_normals","componentType":5126,"count":10850,"min":[-1,-1,-1],"max":[1,1,1],"type":"VEC3","bufferView":0,"byteOffset":130200},{"name":"Node-Mesh_0_indices","componentType":5123,"count":6360,"min":[0],"max":[4161],"type":"SCALAR","bufferView":1,"byteOffset":0},{"name":"Node-Mesh_1_indices","componentType":5123,"count":804,"min":[4162],"max":[4741],"type":"SCALAR","bufferView":1,"byteOffset":12720},{"name":"Node-Mesh_2_indices","componentType":5123,"count":888,"min":[4742],"max":[5365],"type":"SCALAR","bufferView":1,"byteOffset":14328},{"name":"Node-Mesh_3_indices","componentType":5123,"count":7200,"min":[5366],"max":[9943],"type":"SCALAR","bufferView":1,"byteOffset":16104},{"name":"Node-Mesh_4_indices","componentType":5123,"count":708,"min":[9944],"max":[10423],"type":"SCALAR","bufferView":1,"byteOffset":30504},{"name":"Node-Mesh_5_indices","componentType":5123,"count":60,"min":[10424],"max":[10481],"type":"SCALAR","bufferView":1,"byteOffset":31920},{"name":"Node-Mesh_6_indices","componentType":5123,"count":408,"min":[10482],"max":[10721],"type":"SCALAR","bufferView":1,"byteOffset":32040},{"name":"Node-Mesh_7_indices","componentType":5123,"count":120,"min":[10722],"max":[10801],"type":"SCALAR","bufferView":1,"byteOffset":32856},{"name":"Node-Mesh_8_indices","componentType":5123,"count":120,"min":[10802],"max":[10849],"type":"SCALAR","bufferView":1,"byteOffset":33096}],"asset":{"generator":"obj2gltf","version":"2.0"},"buffers":[{"name":"model","byteLength":293736,"uri":"data:application/octet-stream;base64,"}],"bufferViews":[{"name":"bufferView_0","buffer":0,"byteLength":260400,"byteOffset":0,"byteStride":12,"target":34962},{"name":"bufferView_1","buffer":0,"byteLength":33336,"byteOffset":260400,"target":34963}],"materials":[{"name":"mat16","pbrMetallicRoughness":{"baseColorFactor":[0.47,0.56,0.61,1],"metallicFactor":0,"roughnessFactor":1},"emissiveFactor":[0,0,0],"alphaMode":"OPAQUE","doubleSided":false},{"name":"mat5","pbrMetallicRoughness":{"baseColorFactor":[0.01,0.61,0.9,1],"metallicFactor":0,"roughnessFactor":1},"emissiveFactor":[0,0,0],"alphaMode":"OPAQUE","doubleSided":false},{"name":"mat8","pbrMetallicRoughness":{"baseColorFactor":[0.96,0.26,0.21,1],"metallicFactor":0,"roughnessFactor":1},"emissiveFactor":[0,0,0],"alphaMode":"OPAQUE","doubleSided":false},{"name":"mat17","pbrMetallicRoughness":{"baseColorFactor":[0.27,0.35,0.39,1],"metallicFactor":0,"roughnessFactor":1},"emissiveFactor":[0,0,0],"alphaMode":"OPAQUE","doubleSided":false},{"name":"mat25","pbrMetallicRoughness":{"baseColorFactor":[0.92,0.95,0.94,0.4],"metallicFactor":0,"roughnessFactor":0.7},"emissiveFactor":[0,0,0],"alphaMode":"BLEND","doubleSided":true},{"name":"mat24","pbrMetallicRoughness":{"baseColorFactor":[0.92,0.95,0.94,0.4],"metallicFactor":0,"roughnessFactor":0.7},"emissiveFactor":[0,0,0],"alphaMode":"BLEND","doubleSided":true},{"name":"mat23","pbrMetallicRoughness":{"baseColorFactor":[0.1,0.1,0.1,1],"metallicFactor":0,"roughnessFactor":1},"emissiveFactor":[0,0,0],"alphaMode":"OPAQUE","doubleSided":false},{"name":"mat22","pbrMetallicRoughness":{"baseColorFactor":[0.62,0.62,0.62,1],"metallicFactor":0,"roughnessFactor":1},"emissiveFactor":[0,0,0],"alphaMode":"OPAQUE","doubleSided":false},{"name":"mat7","pbrMetallicRoughness":{"baseColorFactor":[0.94,0.38,0.57,1],"metallicFactor":0,"roughnessFactor":1},"emissiveFactor":[0,0,0],"alphaMode":"OPAQUE","doubleSided":false}],"meshes":[{"name":"Node-Mesh","primitives":[{"attributes":{"POSITION":0,"NORMAL":1},"indices":2,"material":0,"mode":4},{"attributes":{"POSITION":0,"NORMAL":1},"indices":3,"material":1,"mode":4},{"attributes":{"POSITION":0,"NORMAL":1},"indices":4,"material":2,"mode":4},{"attributes":{"POSITION":0,"NORMAL":1},"indices":5,"material":3,"mode":4},{"attributes":{"POSITION":0,"NORMAL":1},"indices":6,"material":4,"mode":4},{"attributes":{"POSITION":0,"NORMAL":1},"indices":7,"material":5,"mode":4},{"attributes":{"POSITION":0,"NORMAL":1},"indices":8,"material":6,"mode":4},{"attributes":{"POSITION":0,"NORMAL":1},"indices":9,"material":7,"mode":4},{"attributes":{"POSITION":0,"NORMAL":1},"indices":10,"material":8,"mode":4}]}],"nodes":[{"name":"Node","mesh":0}],"scene":0,"scenes":[{"nodes":[0]}]}
